<svg viewBox="0 0 3000 3000" xmlns="http://www.w3.org/2000/svg"><style>.cls0{fill:#000}.cls0,.cls1,.cls2,.cls3{stroke-linecap:round}.cls1{fill:#162983}.cls2{fill:#799c13}.cls3{fill:#1fa12d}.cls10{stroke-linecap:round}.cls6{fill:#00662c}.cls6,.cls7,.cls9{stroke-linecap:round}.cls7{fill:#ff8080}.cls9{fill:#ffec00}.cls10{fill:#dbaa73}.cls12{fill:#fffad0}.cls12,.cls13,.cls15{stroke-linecap:round}.cls13{fill:#e95d0f}.cls15{fill:#ffb4ff}</style><g class="ideograms"><path class="cls0" d="M1500 525a975 975 40 0 1 216.06 24.241l99.72-438.812A1425 1425 0 0 0 1500 75z"/><path class="cls1" d="M1759.2 560.08a975 975 40 0 1 182.14 70.514l203.68-401.26a1425 1425 0 0 0-266.2-103.06zM1980.5 651.62a975 975 40 0 1 92.675 59.645l264.54-364.03a1425 1425 0 0 0-135.45-87.174z"/><path class="cls2" d="M2108.5 738.21a975 975 40 0 1 173.76 179.85l361.06-268.59a1425 1425 0 0 0-253.96-262.86z"/><path class="cls3" d="M2308 954.33a975 975 40 0 1 96.25 181.04l417.35-168.29a1425 1425 0 0 0-140.67-264.6z"/><path d="M2419.9 1177a975 975 40 0 1 6.296 18.522l427.49-140.54a1425 1425 0 0 0-9.202-27.071z" fill="#57b9a8" stroke-linecap="round"/><path d="M2439.1 1238a975 975 40 0 1 21.515 95.381l443.38-76.884a1425 1425 0 0 0-31.446-139.4z" fill="#97be0d" stroke-linecap="round"/><path class="cls6" d="M2467.3 1377.4a975 975 40 0 1 3.587 32.705l448.08-41.496a1425 1425 0 0 0-5.241-47.8z"/><path class="cls7" d="M2473.9 1454.4a975 975 40 0 1 .141 88.007l449.57 19.591a1425 1425 0 0 0-.205-128.62z"/><path class="cls6" d="M2471.1 1586.8a975 975 40 0 1-37.809 195.22l430.76 130.17a1425 1425 0 0 0 55.259-285.32z"/><path d="M2419.5 1824.3a975 975 40 0 1-7.633 20.88l420.86 159.31a1425 1425 0 0 0 11.155-30.517z" fill="#e2001a" stroke-linecap="round"/><path class="cls9" d="M2395.2 1886.4a975 975 40 0 1-11.281 25.153l407.95 189.94a1425 1425 0 0 0 16.487-36.761z"/><path class="cls10" d="M2364.2 1951.4a975 975 40 0 1-124.4 183.67l341.45 293.1a1425 1425 0 0 0 181.82-268.44zM2210.1 2168.1a975 975 40 0 1-28.012 28.573l314.81 321.55a1425 1425 0 0 0 40.941-41.761z"/><path d="M2149.6 2227.1a975 975 40 0 1-113.37 87.223l247.5 375.83a1425 1425 0 0 0 165.7-127.48z" fill="#328925" stroke-linecap="round"/><path class="cls0" d="M1998.6 2337.9a975 975 40 0 1-63.204 34.513l200.93 402.65a1425 1425 0 0 0 92.376-50.442z"/><path class="cls2" d="M1895.1 2391.3a975 975 40 0 1-201.24 64.182l89.488 441.01a1425 1425 0 0 0 294.12-93.805z"/><path class="cls0" d="M1650.1 2463.4a975 975 40 0 1-62.656 7.696l40.373 448.18a1425 1425 0 0 0 91.573-11.247z"/><path class="cls12" d="M1543.1 2474a975 975 40 0 1-52.452.909l-4.309 449.98a1425 1425 0 0 0 76.66-1.329z"/><path class="cls13" d="M1446.2 2473.5a975 975 40 0 1-181.75-27.39l-108.7 436.67a1425 1425 0 0 0 265.64 40.032z"/><path d="M1221.6 2434.4a975 975 40 0 1-172.79-70.086l-208.24 398.92a1425 1425 0 0 0 252.53 102.43z" fill="#bd1220" stroke-linecap="round"/><path class="cls3" d="M1009.9 2342.9a975 975 40 0 1-187.49-141.81l-312.75 323.56a1425 1425 0 0 0 274.02 207.26z"/><path class="cls15" d="M791.13 2169.4a975 975 40 0 1-133.87-179.1L268.3 2216.6a1425 1425 0 0 0 195.65 261.76z"/><path class="cls13" d="M635.78 1951.4a975 975 40 0 1-40.865-88.828l-417.73 167.34a1425 1425 0 0 0 59.726 129.83z"/><path d="M579.33 1820.9a975 975 40 0 1-32.446-115.5l-439.9 94.811a1425 1425 0 0 0 47.421 168.81z" fill="#9e7742" stroke-linecap="round"/><path class="cls1" d="M538.51 1661.8a975 975 40 0 1-9.6-249.01l-448.19-40.27a1425 1425 0 0 0 14.031 363.94z"/><path class="cls7" d="M533.9 1368.6a975 975 40 0 1 31.633-146.77l-431.29-128.4a1425 1425 0 0 0-46.232 214.5z"/><path class="cls12" d="M579.18 1179.5a975 975 40 0 1 25.111-64.641l-413.4-177.76a1425 1425 0 0 0-36.701 94.476z"/><path class="cls9" d="M622.78 1074.4a975 975 40 0 1 32.914-62.046l-389.68-225.06a1425 1425 0 0 0-48.105 90.684z"/><path class="cls15" d="M678.81 974.39a975 975 40 0 1 142.62-174.5L508.24 476.76A1425 1425 0 0 0 299.8 731.8z"/><path d="M854.04 769.68a975 975 40 0 1 195.94-134.62l-207.7-399.2A1425 1425 0 0 0 555.9 432.61z" fill="#c8fa28" stroke-linecap="round"/><path class="cls13" d="M1089.9 615.45a975 975 40 0 1 73.908-30.648l-155.17-422.4a1425 1425 0 0 0-108.02 44.794z"/><path class="cls7" d="M1205.9 570.42a975 975 40 0 1 249.69-44.411l-20.514-449.53a1425 1425 0 0 0-364.93 64.91z"/></g><g font-family="CMUBBright-Roman,Roboto,Ubuntu,Helvetica,Arial,sans-serif" font-size="700" text-anchor="middle" aria-label="Chloë"><path d="M854.84 1710.5q-51.1 0-93.1-16.8t-72.1-49-46.9-79.1q-16.1-47.6-16.1-108.5t18.2-107.8q18.9-47.6 50.4-79.8t73.5-49 89.6-16.8q30.1 0 53.9 4.2 24.5 4.2 42 9.8 18.2 5.6 29.4 11.2t15.4 8.4l-19.6 56q-6.3-4.2-18.2-9.1t-27.3-9.8q-14.7-4.9-32.9-7.7-17.5-3.5-35.7-3.5-38.5 0-69.3 13.3t-52.5 38.5-33.6 61.6q-11.2 35.7-11.2 80.5 0 43.4 9.8 79.1 10.5 35.7 30.8 61.6 20.3 25.2 50.4 39.2 30.8 14 71.4 14 46.9 0 77.7-9.8t46.2-17.5l17.5 56q-4.9 3.5-17.5 9.1-12.6 4.9-31.5 9.8t-44.1 8.4q-25.2 3.5-54.6 3.5zM1075.434 1700v-532l65.1-11.2V1343q18.2-7 38.5-10.5 21-4.2 41.3-4.2 43.4 0 72.1 12.6 28.7 11.9 45.5 34.3 17.5 21.7 24.5 52.5t7 67.9V1700h-65.1v-190.4q0-33.6-4.9-57.4-4.2-23.8-14.7-38.5t-28-21q-17.5-7-43.4-7-10.5 0-21.7 1.4t-21.7 3.5q-9.8 1.4-18.2 3.5-7.7 2.1-11.2 3.5V1700zM1583.9 1707q-60.2-1.4-85.4-25.9t-25.2-76.3V1168l65.1-11.2v437.5q0 16.1 2.8 26.6t9.1 16.8q6.3 6.3 16.8 9.8 10.5 2.8 25.9 4.9zM1987.4 1518q0 43.4-12.6 78.4t-35.7 60.2q-22.4 25.2-53.9 39.2-31.5 13.3-68.6 13.3t-68.6-13.3q-31.5-14-54.6-39.2-22.4-25.2-35-60.2t-12.6-78.4q0-42.7 12.6-77.7 12.6-35.7 35-60.9 23.1-25.2 54.6-38.5 31.5-14 68.6-14t68.6 14q31.5 13.3 53.9 38.5 23.1 25.2 35.7 60.9 12.6 35 12.6 77.7zm-67.9 0q0-61.6-28-97.3-27.3-36.4-74.9-36.4t-75.6 36.4q-27.3 35.7-27.3 97.3t27.3 98q28 35.7 75.6 35.7t74.9-35.7q28-36.4 28-98zM2058.6 1518.7q0-48.3 14-84 14-36.4 37.1-60.2t53.2-35.7 61.6-11.9q73.5 0 112.7 46.2 39.2 45.5 39.2 139.3v11.2q0 6.3-.7 11.9h-249.2q4.2 56.7 32.9 86.1t89.6 29.4q34.3 0 57.4-5.6 23.8-6.3 35.7-11.9l9.1 54.6q-11.9 6.3-42 13.3-29.4 7-67.2 7-47.6 0-82.6-14-34.3-14.7-56.7-39.9t-33.6-59.5q-10.5-35-10.5-76.3zm249.9-35.7q.7-44.1-22.4-72.1-22.4-28.7-62.3-28.7-22.4 0-39.9 9.1-16.8 8.4-28.7 22.4t-18.9 32.2q-6.3 18.2-8.4 37.1zm-151.9-214.2q-16.1 0-28.7-11.2-11.9-11.9-11.9-30.1t11.9-29.4q12.6-11.9 28.7-11.9t28 11.9q12.6 11.2 12.6 29.4t-12.6 30.1q-11.9 11.2-28 11.2zm133 0q-16.1 0-28.7-11.2-11.9-11.9-11.9-30.1t11.9-29.4q12.6-11.9 28.7-11.9t28 11.9q12.6 11.2 12.6 29.4t-12.6 30.1q-11.9 11.2-28 11.2z"/></g></svg>